<?xml version="1.0" standalone="no"?>
<!DOCTYPE svg PUBLIC "-//W3C//DTD SVG 20010904//EN"
 "http://www.w3.org/TR/2001/REC-SVG-20010904/DTD/svg10.dtd">
<svg version="1.0" xmlns="http://www.w3.org/2000/svg"
 width="530.000000pt" height="170.000000pt" viewBox="0 0 530.000000 170.000000"
 preserveAspectRatio="xMidYMid meet">

<g transform="translate(0.000000,170.000000) scale(0.100000,-0.100000)"
fill="#000000" stroke="none">
<path d="M4967 1263 c-3 -5 -8 -24 -12 -43 -3 -19 -11 -51 -16 -71 l-9 -36
-63 0 c-92 1 -175 -52 -231 -148 -31 -53 -32 -65 -5 -65 16 0 20 -4 14 -17 -3
-10 -9 -45 -12 -79 -13 -144 64 -212 197 -174 23 7 36 7 38 0 3 -9 202 -15
202 -6 0 2 14 63 30 136 17 73 30 134 30 136 0 2 -11 4 -24 4 l-23 0 38 168
c21 92 39 175 39 185 0 15 -11 17 -94 17 -52 0 -97 -3 -99 -7z m-77 -333 c-8
-28 -7 -30 17 -30 27 0 27 3 2 -92 -12 -48 -45 -60 -72 -27 -18 22 -18 59 -1
104 4 8 -3 15 -18 17 l-23 3 27 28 c15 15 38 27 52 27 23 0 24 -2 16 -30z"/>
<path d="M1781 1183 c-5 -21 -11 -47 -13 -58 -2 -13 -12 -21 -31 -23 -20 -3
-28 -10 -33 -30 -3 -15 -10 -43 -15 -62 -12 -48 -12 -48 14 -52 18 -2 21 -8
19 -35 -3 -28 0 -33 18 -33 16 0 20 -5 16 -17 -16 -52 -26 -114 -25 -158 0
-89 27 -105 182 -105 l114 0 12 53 c6 28 14 62 17 75 6 19 3 22 -24 22 -16 0
-35 -7 -42 -15 -7 -8 -22 -15 -33 -15 -18 0 -19 4 -14 58 4 31 10 67 13 80 5
18 2 22 -15 22 -22 0 -25 10 -15 48 6 20 12 22 70 22 l63 0 10 38 c5 20 12 52
16 70 l7 32 -62 0 -62 0 7 38 c3 20 9 47 12 60 5 22 4 22 -96 22 l-100 0 -10
-37z"/>
<path d="M383 1110 c-76 -18 -150 -70 -204 -144 -34 -46 -37 -66 -8 -66 16 0
19 -4 14 -17 -4 -10 -9 -41 -12 -69 -16 -152 130 -243 323 -201 92 20 119 36
127 75 3 16 9 41 13 56 6 24 4 26 -24 26 -16 0 -46 -7 -65 -15 -53 -22 -119
-19 -151 6 -14 11 -26 27 -26 35 0 11 26 14 144 14 l144 0 6 28 c4 15 9 35 12
45 4 13 -1 17 -19 17 -23 0 -25 4 -29 65 -3 57 -8 69 -37 99 -48 50 -123 67
-208 46z m72 -132 c14 -6 25 -17 25 -25 0 -10 -18 -13 -71 -13 -75 0 -83 11
-25 36 39 17 39 17 71 2z"/>
<path d="M853 1109 c-102 -15 -108 -19 -122 -86 -8 -32 -16 -64 -18 -70 -7
-19 23 -16 67 7 52 27 125 37 145 20 25 -21 18 -27 -53 -38 -71 -12 -153 -41
-118 -42 15 0 12 -7 -17 -39 -67 -75 -73 -171 -14 -215 26 -19 44 -21 210 -24
l182 -3 29 128 c16 70 31 134 34 141 2 7 -5 12 -22 12 -24 0 -26 3 -19 28 11
44 7 97 -11 124 -33 51 -152 76 -273 57z m102 -301 c-12 -61 -16 -68 -39 -68
-58 0 -53 59 7 85 18 8 33 14 35 15 2 0 1 -15 -3 -32z"/>
<path d="M4275 1114 c-16 -2 -56 -9 -87 -15 -54 -11 -58 -14 -68 -48 -19 -67
-23 -111 -11 -111 7 0 29 9 49 19 70 36 162 40 162 7 0 -9 -24 -17 -72 -25
-65 -11 -143 -40 -110 -41 8 0 -1 -17 -21 -41 -46 -54 -64 -123 -44 -171 24
-58 57 -67 253 -67 l171 -1 28 118 c15 64 29 127 32 140 4 17 1 22 -16 22 -21
0 -22 3 -16 58 7 68 -13 109 -66 135 -36 16 -134 28 -184 21z m57 -336 c-7
-28 -13 -33 -38 -33 -26 0 -29 3 -29 30 0 24 7 33 35 48 41 20 47 11 32 -45z"/>
<path d="M1390 1095 c-25 -8 -62 -28 -83 -46 -62 -51 -101 -149 -59 -149 9 0
24 -15 32 -32 20 -43 56 -67 121 -81 60 -14 69 -27 26 -38 -35 -9 -89 5 -112
31 -10 11 -31 20 -46 20 -30 0 -40 -22 -55 -111 -6 -36 -5 -37 42 -55 74 -29
212 -26 282 5 63 28 107 76 122 132 18 65 -8 129 -51 129 -10 0 -33 6 -51 14
-18 8 -52 19 -76 26 -25 6 -42 16 -39 23 6 21 56 19 102 -3 24 -12 56 -20 71
-18 25 3 29 9 41 61 7 33 11 63 8 67 -3 4 -26 15 -52 24 -56 19 -162 20 -223
1z"/>
<path d="M2706 1090 c-27 -11 -65 -34 -84 -52 -56 -54 -83 -138 -43 -138 12 0
21 -9 25 -24 10 -38 51 -70 112 -86 63 -17 79 -35 38 -43 -36 -7 -90 10 -113
34 -13 14 -29 19 -47 17 -27 -3 -30 -8 -42 -66 -8 -34 -12 -69 -9 -76 9 -24
129 -49 205 -44 127 9 215 69 241 162 16 59 -8 126 -45 126 -31 0 -175 53
-171 64 6 20 56 18 101 -3 23 -12 54 -21 69 -21 22 0 28 6 37 42 23 83 20 91
-35 110 -68 23 -177 22 -239 -2z"/>
<path d="M3165 1091 c-47 -21 -115 -92 -144 -150 l-21 -41 20 0 c18 0 20 -4
13 -42 -18 -98 -7 -162 37 -212 36 -41 90 -54 145 -36 20 7 38 10 40 8 3 -2
-4 -39 -14 -81 l-18 -77 101 0 102 0 47 208 c26 114 47 213 47 220 0 6 -8 12
-19 12 -18 0 -18 4 4 97 13 54 23 99 22 99 -1 1 -74 4 -162 7 -141 5 -165 4
-200 -12z m123 -161 c-4 -24 -1 -30 14 -30 21 0 21 0 7 -73 -12 -61 -36 -80
-66 -56 -12 11 -14 26 -10 71 4 46 2 58 -9 58 -8 0 -14 3 -14 7 0 15 45 53 63
53 16 0 18 -5 15 -30z"/>
<path d="M3561 1013 c-12 -49 -24 -96 -27 -105 -4 -14 0 -18 19 -18 l24 0 -13
-62 c-20 -92 -18 -141 7 -171 26 -34 89 -51 148 -42 25 4 96 7 158 6 l111 -2
27 118 c15 65 29 126 32 136 3 12 -1 17 -16 17 -26 0 -26 8 -1 115 11 47 20
88 20 90 0 3 -45 5 -99 5 -86 0 -100 -2 -105 -17 -3 -10 -12 -49 -21 -88 -8
-38 -18 -78 -21 -87 -4 -14 0 -18 19 -18 l24 0 -13 -57 c-14 -60 -35 -90 -54
-78 -12 7 -8 83 6 120 5 11 -1 15 -19 15 l-24 0 18 88 c28 133 35 122 -80 122
l-99 0 -21 -87z"/>
</g>
</svg>
