<?xml version="1.0" standalone="no"?>
<!DOCTYPE svg PUBLIC "-//W3C//DTD SVG 20010904//EN"
 "http://www.w3.org/TR/2001/REC-SVG-20010904/DTD/svg10.dtd">
<svg version="1.0" xmlns="http://www.w3.org/2000/svg"
 width="480.000000pt" height="270.000000pt" viewBox="0 0 480.000000 270.000000"
 preserveAspectRatio="xMidYMid meet">

<g transform="translate(0.000000,270.000000) scale(0.100000,-0.100000)"
fill="#000000" stroke="none">
<path d="M2199 2370 c-222 -26 -417 -120 -580 -280 -146 -143 -228 -283 -275
-469 -137 -538 180 -1074 721 -1221 113 -31 310 -38 428 -16 542 102 902 611
812 1146 -36 220 -118 382 -274 543 -216 224 -523 333 -832 297z m374 -94
c444 -133 727 -552 676 -1003 -43 -391 -318 -710 -697 -810 -133 -35 -325 -37
-456 -5 -344 86 -605 346 -692 690 -40 159 -34 358 17 513 109 331 392 577
736 639 26 5 111 7 188 6 116 -3 155 -8 228 -30z"/>
<path d="M2140 2255 c-191 -39 -343 -126 -481 -273 -162 -173 -239 -370 -239
-611 0 -195 46 -347 153 -506 119 -175 310 -310 522 -366 114 -30 326 -30 440
0 145 38 280 112 389 212 187 171 288 403 288 664 0 437 -313 808 -746 884
-80 15 -246 12 -326 -4z m200 -29 c0 -25 -15 -37 -37 -28 -14 4 -18 34 -6 45
3 4 15 7 25 7 12 0 18 -7 18 -24z m-262 -42 c4 -26 -26 -40 -45 -21 -8 7 -11
21 -7 31 9 24 48 17 52 -10z m116 -16 c4 -23 16 -62 26 -86 17 -39 20 -68 20
-219 0 -181 -5 -207 -49 -257 -21 -24 -78 -53 -122 -61 -49 -9 -350 93 -394
134 -16 15 -50 40 -75 55 -41 24 -43 26 -18 26 22 0 35 12 69 63 104 154 270
271 469 329 34 10 46 18 48 36 5 36 19 25 26 -20z m266 30 c0 -27 19 -40 75
-54 32 -9 93 -33 134 -54 137 -68 232 -152 320 -282 25 -37 38 -48 58 -48 24
0 22 -3 -23 -31 -27 -17 -60 -42 -74 -55 -16 -14 -90 -46 -189 -80 -175 -60
-196 -62 -271 -24 -40 21 -61 42 -84 87 -13 26 -16 66 -16 208 0 157 2 180 20
215 11 22 23 60 27 85 3 25 10 45 14 45 5 0 9 -6 9 -12z m144 -5 c4 -9 0 -23
-9 -32 -13 -14 -17 -14 -31 1 -9 9 -14 24 -11 32 8 21 43 20 51 -1z m-769
-133 c0 -29 -32 -41 -41 -16 -9 24 4 48 23 44 12 -2 18 -12 18 -28z m1000 0
c0 -16 -6 -26 -18 -28 -19 -4 -32 20 -23 44 9 25 41 13 41 -16z m-1182 -174
c8 -21 -16 -48 -36 -40 -17 6 -23 35 -10 47 11 12 41 7 46 -7z m1375 -10 c4
-21 -14 -37 -35 -29 -14 5 -18 35 -6 47 12 12 38 1 41 -18z m-1498 -242 c0
-21 -4 -25 -22 -22 -15 2 -24 11 -26 26 -3 18 1 22 22 22 21 0 26 -5 26 -26z
m1620 1 c0 -20 -5 -25 -25 -25 -20 0 -25 5 -25 25 0 20 5 25 25 25 20 0 25 -5
25 -25z m-802 -7 c21 -21 15 -67 -12 -79 -34 -16 -66 3 -66 39 0 33 16 52 45
52 12 0 26 -5 33 -12z m-518 -175 c80 -25 157 -54 172 -64 33 -24 78 -113 78
-154 0 -18 -5 -47 -12 -66 -16 -45 -205 -297 -229 -304 -10 -4 -44 -26 -74
-51 -55 -45 -60 -46 -46 -10 6 15 -5 36 -42 85 -104 137 -159 296 -162 473 -2
97 -4 109 -24 125 -21 18 -19 18 86 15 95 -3 125 -9 253 -49z m1311 37 c-21
-18 -23 -28 -26 -132 -3 -136 -27 -232 -84 -346 -22 -44 -60 -105 -84 -134
-33 -41 -42 -58 -36 -73 14 -36 9 -35 -45 9 -30 24 -63 47 -74 50 -23 8 -208
254 -230 306 -27 65 7 173 68 218 14 11 87 39 161 63 111 36 153 44 244 49 61
4 115 7 120 8 6 1 -1 -7 -14 -18z m-997 -16 c23 -23 20 -51 -9 -70 -23 -15
-27 -15 -50 0 -14 9 -25 25 -25 36 0 24 26 50 50 50 10 0 26 -7 34 -16z m226
1 c32 -17 60 -61 60 -95 0 -29 -26 -76 -52 -94 -32 -23 -100 -20 -131 4 -14
11 -31 36 -37 55 -32 96 68 177 160 130z m184 -1 c22 -21 20 -47 -4 -69 -41
-37 -102 24 -64 66 21 23 47 24 68 3z m-1066 -100 c4 -29 -28 -41 -45 -18 -10
13 -10 21 -1 31 16 19 42 12 46 -13z m1702 10 c11 -12 11 -18 -2 -30 -18 -18
-48 -8 -48 15 0 33 28 42 50 15z m-964 -159 c15 -23 15 -27 0 -50 -19 -29 -47
-32 -70 -9 -31 30 -9 84 34 84 11 0 27 -11 36 -25z m248 9 c31 -30 9 -84 -34
-84 -11 0 -27 11 -36 25 -15 23 -15 27 0 50 19 29 47 32 70 9z m-949 -124 c0
-16 -6 -26 -18 -28 -19 -4 -32 20 -23 44 9 25 41 13 41 -16z m1620 0 c0 -16
-6 -26 -18 -28 -19 -4 -32 20 -23 44 9 25 41 13 41 -16z m-738 -21 c35 -17 60
-45 143 -164 55 -78 100 -152 100 -164 0 -12 11 -49 25 -83 30 -74 30 -76 5
-53 -20 18 -23 18 -98 -8 -186 -63 -371 -62 -545 3 -55 21 -59 21 -84 5 -25
-17 -26 -17 -18 1 16 40 44 120 49 144 3 14 48 86 100 160 74 104 105 140 137
158 54 29 128 29 186 1z m-758 -202 c15 -19 -10 -53 -33 -44 -16 6 -22 38 -9
50 10 11 30 8 42 -6z m1376 -17 c0 -16 -6 -26 -18 -28 -19 -4 -32 20 -23 44 9
25 41 13 41 -16z m-1187 -184 c4 -21 -14 -37 -35 -29 -14 5 -18 35 -6 47 12
12 38 1 41 -18z m1006 9 c7 -19 -20 -46 -39 -39 -15 6 -20 35 -8 47 12 12 41
7 47 -8z m-766 -131 c4 -26 -26 -40 -45 -21 -8 7 -11 21 -7 31 9 24 48 17 52
-10z m526 9 c4 -9 0 -23 -9 -32 -13 -14 -17 -14 -31 1 -9 9 -14 24 -11 32 8
21 43 20 51 -1z m-269 -53 c0 -16 -6 -26 -18 -28 -19 -4 -32 20 -23 44 9 25
41 13 41 -16z"/>
<path d="M2268 1454 c-74 -40 -40 -164 45 -164 41 0 67 17 83 56 12 30 12 39
0 69 -22 52 -75 68 -128 39z"/>
</g>
</svg>
